<?xml version="1.0" encoding="utf-8"?>
<!-- Generator: Adobe Illustrator 24.1.1, SVG Export Plug-In . SVG Version: 6.00 Build 0)  -->
<svg version="1.1" id="Warstwa_1" xmlns="http://www.w3.org/2000/svg" xmlns:xlink="http://www.w3.org/1999/xlink" x="0px" y="0px"
	 viewBox="0 0 411.2 183.1" style="enable-background:new 0 0 411.2 183.1;" xml:space="preserve">
<style type="text/css">
	.st0{fill:#7D7A7B;}
	.st1{fill:#E21F26;}
	.st2{fill:#632B7E;}
</style>
<g>
	<g>
		<g>
			<path class="st0" d="M217.2,127.5c0,5.2-3.3,7.1-8.4,7.1h-0.2c-5.1,0-8.4-1.9-8.4-7.1v-26.9h5.6v26c0,2.4,1.1,3.1,2.9,3.1
				s2.9-0.7,2.9-3.1v-26h5.6L217.2,127.5L217.2,127.5z"/>
			<path class="st0" d="M244.6,127.5c0,5.2-3.4,7.1-8.4,7.1H236c-5.1,0-8.4-1.9-8.4-7.1v-20.2c0-5,3.4-7.1,8.4-7.1h0.1
				c5.1,0,8.4,2.1,8.4,7.1v6.1H239v-5.3c0-2.4-1.2-3.1-2.9-3.1c-1.8,0-2.9,0.7-2.9,3.1v18.4c0,2.4,1.2,3.1,2.9,3.1
				c1.8,0,2.9-0.7,2.9-3.1v-6.1h5.6V127.5z"/>
			<path class="st0" d="M269.1,134.3H253v-3.9l9.9-25.2h-9.3v-4.6h15.2v3.8l-9.9,25.2h10.2L269.1,134.3L269.1,134.3z"/>
			<path class="st0" d="M278.3,134.3v-33.6H293v4.9h-9.2v9.2h7.7v4.9h-7.7v9.7h9.3v4.9H278.3z"/>
			<path class="st0" d="M317.2,134.3H303v-33.6h5.6v28.6h8.6V134.3z"/>
			<path class="st0" d="M326,134.3v-33.6h5.6l7.1,20.8v-20.8h5.1v33.6h-5.3l-7.4-21.9v21.8H326V134.3z"/>
			<path class="st0" d="M354.5,134.3v-33.6h5.6v33.6H354.5z"/>
			<path class="st0" d="M381.7,126.8h-6.1l-1.2,7.5H369l6.2-33.6h7l6.3,33.6h-5.7L381.7,126.8z M380.9,122.2l-2.4-14.9l-2.4,14.9
				H380.9z"/>
		</g>
		<g>
			<g>
				<path class="st0" d="M213.6,165.2c2.9,0.5,3.9,2.7,3.9,5.3v5.5c0,4.2-3.3,6.6-8.4,6.6h-8.7V149h8.8c5.1,0,8.1,2.4,8.1,6.6v4.2
					C217.4,162.3,216.3,164.9,213.6,165.2z M206.1,162.9h3.1c1.6,0,2.6-0.8,2.6-2.6v-3.9c0-1.8-1-2.6-2.6-2.6h-3.1V162.9z
					 M209.4,167.7h-3.3v10.2h3.3c1.6,0,2.6-0.8,2.6-2.6v-5C212,168.5,211,167.7,209.4,167.7z"/>
				<path class="st0" d="M237.9,175.2h-6.1l-1.2,7.5h-5.4l6.2-33.6h7l6.3,33.6h-5.6L237.9,175.2z M237.2,170.6l-2.4-14.9l-2.4,14.9
					H237.2z"/>
				<path class="st0" d="M270.5,156.2v19.4c0,5.1-3.4,7.1-8.4,7.1h-8.6v-33.6h8.6C267.1,149.1,270.5,151.1,270.5,156.2z M261.9,154
					h-2.8v23.8h2.8c1.8,0,3.1-0.7,3.1-3.1V157C264.9,154.6,263.7,154,261.9,154z"/>
				<path class="st0" d="M291.4,175.2h-6.1l-1.2,7.5h-5.4l6.2-33.6h7l6.3,33.6h-5.7L291.4,175.2z M290.7,170.6l-2.4-14.9l-2.4,14.9
					H290.7z"/>
				<path class="st0" d="M327.9,182.7h-5.2l-4.3-23l-4.3,23h-5.4l-5.3-33.6h5.5l2.8,24l4.3-24h5l4.3,24l2.8-24h5.2L327.9,182.7z"/>
				<path class="st0" d="M358.4,176c0,5.2-3.4,7.1-8.4,7.1h-0.1c-5.1,0-8.4-1.9-8.4-7.1v-20.2c0-5,3.4-7.1,8.4-7.1h0.1
					c5.1,0,8.4,2.1,8.4,7.1v6.1h-5.6v-5.3c0-2.4-1.2-3.1-2.9-3.1s-2.9,0.7-2.9,3.1V175c0,2.4,1.2,3.1,2.9,3.1s2.9-0.7,2.9-3.1v-6.1
					h5.6V176z"/>
				<path class="st0" d="M382.9,182.7h-16.1v-3.8l9.9-25.2h-9.3v-4.6h15.2v3.8l-9.9,25.2h10.2L382.9,182.7L382.9,182.7z"/>
				<path class="st0" d="M402.8,175.2h-6.1l-1.2,7.5h-5.4l6.2-33.6h7l6.3,33.6h-5.7L402.8,175.2z M402.1,170.6l-2.4-14.9l-2.4,14.9
					H402.1z"/>
			</g>
		</g>
		<g>
			<path class="st0" d="M200.3,88V71.2h1.7V88H200.3z"/>
			<path class="st0" d="M205.1,88V71.2h1.8l4.9,12.7V71.2h1.6V88h-1.7l-5-13v13H205.1z"/>
			<path class="st0" d="M216.4,88V71.2h1.7V88H216.4z"/>
			<path class="st0" d="M229,84.7c0,2.4-1.4,3.6-3.9,3.6l0,0c-2.5,0-3.9-1.1-3.9-3.6V74.6c0-2.4,1.4-3.6,3.9-3.6l0,0
				c2.5,0,3.9,1.2,3.9,3.6v2.9h-1.7V75c0-1.7-0.6-2.4-2.2-2.4s-2.2,0.7-2.2,2.4v9.2c0,1.7,0.6,2.4,2.2,2.4s2.2-0.7,2.2-2.4v-2.9h1.7
				V84.7z"/>
			<path class="st0" d="M233.8,84V71.2h1.7v13.2c0,2.5-1.5,3.6-4,3.6h-0.8v-1.6h0.7C233.1,86.5,233.8,85.8,233.8,84z"/>
			<path class="st0" d="M243.9,83.9h-4.1l-0.8,4.2h-1.7l3.6-16.8h2.1l3.6,16.8h-1.8L243.9,83.9z M243.6,82.4l-1.8-8.7l-1.8,8.7
				H243.6z"/>
			<path class="st0" d="M254.1,72.8H251V88h-1.7V72.8h-3v-1.6h7.8V72.8z"/>
			<path class="st0" d="M260.2,88h-1.7v-6.4l-3.6-10.4h1.8l2.7,8.4l2.7-8.4h1.8l-3.6,10.4L260.2,88L260.2,88z"/>
			<path class="st0" d="M276.5,88h-1.7l-2.7-13.5L269.4,88h-1.7l-2.8-16.8h1.7l2,13.5l2.7-13.5h1.6l2.7,13.5l2-13.5h1.6L276.5,88z"
				/>
			<path class="st0" d="M286,83.9h-4.1l-0.8,4.2h-1.7l3.6-16.8h2.1l3.6,16.8h-1.8L286,83.9z M285.7,82.4l-1.8-8.7l-1.8,8.7H285.7z"
				/>
			<path class="st0" d="M302.1,74.8v9.7c0,2.4-1.4,3.6-3.9,3.6h-4V71.2h4C300.7,71.2,302.1,72.4,302.1,74.8z M298.1,72.8h-2.2v13.7
				h2.2c1.6,0,2.3-0.7,2.3-2.4v-8.9C300.4,73.5,299.7,72.8,298.1,72.8z"/>
			<path class="st0" d="M308.8,71h0.2c2.5,0,3.9,1.2,3.9,3.6v10.1c0,2.4-1.4,3.6-3.9,3.6h-0.2c-2.5,0-3.9-1.2-3.9-3.6V74.6
				C304.9,72.2,306.3,71,308.8,71z M308.9,86.7c1.6,0,2.3-0.7,2.3-2.4v-9.2c0-1.8-0.7-2.4-2.3-2.4c-1.6,0-2.3,0.7-2.3,2.4v9.2
				C306.6,86,307.3,86.7,308.9,86.7z"/>
			<path class="st0" d="M321.5,77.1v-2.2c0-1.6-0.6-2.3-2.2-2.3c-1.5,0-2.2,0.7-2.2,2.3v1.2c0,1.1,0.4,1.5,1.5,2.1l2.4,1.3
				c1.3,0.7,2.2,1.6,2.2,3v2.2c0,2.4-1.3,3.5-3.9,3.5l0,0c-2.5,0-3.9-1-3.9-3.5v-2.8h1.7v2.4c0,1.6,0.6,2.4,2.2,2.4s2.2-0.8,2.2-2.4
				V83c0-1.1-0.4-1.6-1.6-2.2l-2.4-1.3c-1.5-0.8-2.1-1.5-2.1-3v-2c0-2.4,1.5-3.5,3.8-3.5l0,0c2.3,0,3.8,1.1,3.8,3.5v2.6H321.5z"/>
			<path class="st0" d="M332.7,88l-3.2-8.7l-1.9,3.3V88h-1.7V71.2h1.7v8.6l4.7-8.6h1.9l-3.6,6.3l3.9,10.5H332.7z"/>
			<path class="st0" d="M339.8,71h0.2c2.5,0,3.9,1.2,3.9,3.6v10.1c0,2.4-1.4,3.6-3.9,3.6h-0.2c-2.5,0-3.9-1.2-3.9-3.6V74.6
				C335.8,72.2,337.2,71,339.8,71z M339.8,86.7c1.6,0,2.3-0.7,2.3-2.4v-9.2c0-1.8-0.7-2.4-2.3-2.4c-1.6,0-2.3,0.7-2.3,2.4v9.2
				C337.5,86,338.2,86.7,339.8,86.7z"/>
			<path class="st0" d="M346.8,88V71.2h1.8l4.9,12.7V71.2h1.6V88h-1.7l-5-13v13H346.8z"/>
			<path class="st0" d="M363.6,83.9h-4.1l-0.8,4.2H357l3.6-16.8h2.1l3.6,16.8h-1.8L363.6,83.9z M363.3,82.4l-1.8-8.7l-1.8,8.7H363.3
				z"/>
			<path class="st0" d="M374.9,86.5v1.6h-6.5v-7.7l-1.5,0.7v-1.5l1.5-0.7v-7.7h1.7V78l2.8-1.4v1.5l-2.8,1.4v6.9h4.8V86.5z"/>
			<path class="st0" d="M380.7,71h0.2c2.5,0,3.9,1.2,3.9,3.6v10.1c0,2.4-1.4,3.6-3.9,3.6h-0.2c-2.5,0-3.9-1.2-3.9-3.6V74.6
				C376.8,72.2,378.2,71,380.7,71z M380.8,86.7c1.6,0,2.3-0.7,2.3-2.4v-9.2c0-1.8-0.7-2.4-2.3-2.4c-1.6,0-2.3,0.7-2.3,2.4v9.2
				C378.5,86,379.2,86.7,380.8,86.7z"/>
			<path class="st0" d="M393.4,77.1v-2.2c0-1.6-0.6-2.3-2.2-2.3c-1.5,0-2.2,0.7-2.2,2.3v1.2c0,1.1,0.4,1.5,1.5,2.1l2.4,1.3
				c1.3,0.7,2.2,1.6,2.2,3v2.2c0,2.4-1.3,3.5-3.9,3.5l0,0c-2.5,0-3.9-1-3.9-3.5v-2.8h1.7v2.4c0,1.6,0.6,2.4,2.2,2.4s2.2-0.8,2.2-2.4
				V83c0-1.1-0.4-1.6-1.6-2.2l-2.4-1.3c-1.5-0.8-2.1-1.5-2.1-3v-2c0-2.4,1.5-3.5,3.8-3.5l0,0c2.3,0,3.8,1.1,3.8,3.5v2.6H393.4z
				 M394.2,66.8l-2.4,3.1h-1.3l1.7-3.1H394.2z"/>
			<path class="st0" d="M405.6,84.7c0,2.4-1.4,3.6-3.9,3.6l0,0c-2.5,0-3.9-1.1-3.9-3.6V74.6c0-2.4,1.4-3.6,3.9-3.6l0,0
				c2.5,0,3.9,1.2,3.9,3.6v2.9h-1.7V75c0-1.7-0.6-2.4-2.2-2.4s-2.2,0.7-2.2,2.4v9.2c0,1.7,0.6,2.4,2.2,2.4s2.2-0.7,2.2-2.4v-2.9h1.7
				V84.7z"/>
			<path class="st0" d="M408.4,88V71.2h1.7V88H408.4z"/>
		</g>
	</g>
	<g>
		<path class="st1" d="M150.4,61H98.6h-4.9h-2.8v20h1.7v0.1c0.4,0,0.7-0.1,1.1-0.1h4.9h51.8c7,0,12.7,5.7,12.7,12.7v56.7
			c0,7-5.7,12.7-12.7,12.7H93.7c-7,0-12.7-5.7-12.7-12.7V96.7v-3c0-0.2,0-0.3,0-0.4l0,0V63.6v-6.7v-2.7v-30C81,10.8,70.2,0,56.8,0
			H24.2C10.8,0,0,10.8,0,24.2v32.7C0,70.2,10.8,81,24.2,81h26.2V61H24.2c-2.3,0-4.2-1.9-4.2-4.2V24.2c0-2.3,1.9-4.2,4.2-4.2h32.7
			c2.3,0,4.2,1.9,4.2,4.2v27.4v2.5v2.7v23.8v13v3v53.7c0,18,14.7,32.7,32.7,32.7h56.7c18,0,32.7-14.7,32.7-32.7V93.7
			C183.1,75.7,168.4,61,150.4,61z"/>
		<polygon class="st2" points="35.7,61 50.4,81 50.4,61 		"/>
		<polygon class="st2" points="105.7,81 90.9,61 90.9,81 		"/>
	</g>
</g>
</svg>
