<?xml version="1.0" encoding="utf-8"?>
<!-- Generator: Adobe Illustrator 24.1.0, SVG Export Plug-In . SVG Version: 6.00 Build 0)  -->
<svg version="1.1" id="Capa_1" xmlns="http://www.w3.org/2000/svg" xmlns:xlink="http://www.w3.org/1999/xlink" x="0px" y="0px"
	 viewBox="0 0 467.63 72.95" style="enable-background:new 0 0 467.63 72.95;" xml:space="preserve">
<style type="text/css">
	.st0{fill:#1D1D1B;}
	.st1{clip-path:url(#SVGID_2_);fill:#1D1D1B;}
	.st2{clip-path:url(#SVGID_4_);fill:#1D1D1B;}
</style>
<polygon class="st0" points="25.95,0 25.95,16.44 5.23,16.44 5.23,0 0,0 0,38.09 5.23,38.09 5.23,21.67 25.95,21.67 25.95,38.09 
	31.18,38.09 31.18,0 "/>
<polygon class="st0" points="36.43,0 36.43,5.23 42.01,5.23 42.01,38.09 47.24,38.09 47.24,0 "/>
<g>
	<defs>
		<rect id="SVGID_1_" y="0" width="467.63" height="72.95"/>
	</defs>
	<clipPath id="SVGID_2_">
		<use xlink:href="#SVGID_1_"  style="overflow:visible;"/>
	</clipPath>
	<path class="st1" d="M51.62,19.02C51.62,8.51,60.14,0,70.64,0c10.5,0,19.02,8.51,19.02,19.02s-8.51,19.02-19.02,19.02
		C60.14,38.03,51.62,29.52,51.62,19.02 M56.78,19.02c0,7.65,6.2,13.86,13.86,13.86c7.65,0,13.86-6.2,13.86-13.86
		c0-7.65-6.2-13.86-13.86-13.86C62.99,5.16,56.78,11.36,56.78,19.02"/>
</g>
<polygon class="st0" points="461.43,66.35 457.58,66.33 460.7,68.86 459.5,72.95 462.6,70.41 465.71,72.95 464.51,68.86 
	467.63,66.33 463.78,66.35 462.6,62.24 "/>
<polygon class="st0" points="448.09,66.35 444.25,66.33 447.37,68.86 446.16,72.95 449.27,70.41 452.38,72.95 451.18,68.86 
	454.3,66.33 450.45,66.35 449.27,62.24 "/>
<polygon class="st0" points="434.76,66.35 430.91,66.33 434.03,68.86 432.83,72.95 435.94,70.41 439.04,72.95 437.84,68.86 
	440.96,66.33 437.11,66.35 435.94,62.24 "/>
<polygon class="st0" points="421.43,66.35 417.58,66.33 420.7,68.86 419.5,72.95 422.6,70.41 425.71,72.95 424.51,68.86 
	427.63,66.33 423.78,66.35 422.6,62.24 "/>
<g>
	<defs>
		<rect id="SVGID_3_" y="0" width="467.63" height="72.95"/>
	</defs>
	<clipPath id="SVGID_4_">
		<use xlink:href="#SVGID_3_"  style="overflow:visible;"/>
	</clipPath>
	<path class="st2" d="M451.14,24.16c-5.76,0.76-8.64,3.25-8.64,7.45c0,1.21,0.22,2.25,0.67,3.13c0.45,0.88,1.05,1.62,1.81,2.22
		c0.76,0.6,1.65,1.05,2.65,1.34c1,0.29,2.05,0.43,3.13,0.43c1.81,0,3.5-0.35,5.06-1.05c1.56-0.7,2.94-1.72,4.15-3.06
		c0,0.45,0.03,0.87,0.1,1.26c0.06,0.4,0.18,0.76,0.36,1.1c0.17,0.33,0.41,0.62,0.69,0.86c0.29,0.24,0.67,0.39,1.14,0.45
		c0.41,0.1,0.84,0.14,1.29,0.14c0.41,0,0.84-0.06,1.27-0.19c0.43-0.13,0.76-0.22,0.98-0.29v-2.24c-1.21,0.45-2.01,0.52-2.41,0.21
		c-0.4-0.3-0.6-1.01-0.6-2.12V20.34c0-1.43-0.23-2.64-0.69-3.63s-1.1-1.77-1.91-2.36c-0.81-0.59-1.77-1.02-2.86-1.29
		c-1.1-0.27-2.27-0.4-3.51-0.4c-1.34,0-2.6,0.15-3.79,0.45c-1.19,0.3-2.24,0.78-3.15,1.43c-0.91,0.65-1.65,1.5-2.22,2.53
		c-0.57,1.03-0.91,2.28-1,3.75h2.91c0.13-1.08,0.39-1.98,0.79-2.7c0.4-0.72,0.91-1.29,1.53-1.72c0.62-0.43,1.34-0.73,2.17-0.91
		c0.83-0.18,1.73-0.26,2.72-0.26c2.23,0,3.81,0.47,4.75,1.41c0.94,0.94,1.41,2.14,1.41,3.6c0,0.45-0.06,0.93-0.17,1.46
		c-0.11,0.53-0.4,0.9-0.88,1.12c-0.48,0.22-1.09,0.4-1.84,0.52c-0.75,0.13-1.39,0.22-1.93,0.29L451.14,24.16z M459.92,28.93
		c0,1.24-0.26,2.32-0.76,3.22c-0.51,0.91-1.19,1.65-2.03,2.24c-0.84,0.59-1.81,1.03-2.89,1.31c-1.08,0.29-2.2,0.43-3.34,0.43
		c-0.67,0-1.33-0.09-1.98-0.26s-1.23-0.44-1.72-0.81c-0.49-0.36-0.89-0.83-1.19-1.38c-0.3-0.56-0.45-1.22-0.45-1.98
		c0-1.69,0.61-2.94,1.84-3.77c1.22-0.83,2.94-1.32,5.13-1.48c1.24-0.1,2.48-0.22,3.72-0.38c1.24-0.16,2.47-0.49,3.68-1V28.93z
		 M439.2,38.05v-2.39h-17.04l16.42-19.81v-2.53h-19v2.39h15.32l-16.42,19.81v2.53H439.2z M401.69,24.16
		c-5.76,0.76-8.64,3.25-8.64,7.45c0,1.21,0.22,2.25,0.67,3.13c0.45,0.88,1.05,1.62,1.81,2.22c0.76,0.6,1.65,1.05,2.65,1.34
		c1,0.29,2.04,0.43,3.13,0.43c1.81,0,3.5-0.35,5.06-1.05c1.56-0.7,2.94-1.72,4.15-3.06c0,0.45,0.03,0.87,0.1,1.26
		c0.06,0.4,0.18,0.76,0.36,1.1c0.17,0.33,0.41,0.62,0.69,0.86c0.29,0.24,0.67,0.39,1.14,0.45c0.41,0.1,0.84,0.14,1.29,0.14
		c0.41,0,0.83-0.06,1.26-0.19c0.43-0.13,0.76-0.22,0.98-0.29v-2.24c-1.21,0.45-2.01,0.52-2.41,0.21c-0.4-0.3-0.6-1.01-0.6-2.12
		V20.34c0-1.43-0.23-2.64-0.69-3.63s-1.1-1.77-1.91-2.36c-0.81-0.59-1.77-1.02-2.86-1.29c-1.1-0.27-2.27-0.4-3.51-0.4
		c-1.34,0-2.6,0.15-3.8,0.45c-1.19,0.3-2.24,0.78-3.15,1.43c-0.91,0.65-1.65,1.5-2.22,2.53c-0.57,1.03-0.91,2.28-1,3.75h2.91
		c0.13-1.08,0.39-1.98,0.79-2.7c0.4-0.72,0.91-1.29,1.53-1.72c0.62-0.43,1.34-0.73,2.17-0.91c0.83-0.18,1.73-0.26,2.72-0.26
		c2.23,0,3.81,0.47,4.75,1.41c0.94,0.94,1.41,2.14,1.41,3.6c0,0.45-0.06,0.93-0.17,1.46c-0.11,0.53-0.41,0.9-0.88,1.12
		c-0.48,0.22-1.09,0.4-1.84,0.52c-0.75,0.13-1.39,0.22-1.93,0.29L401.69,24.16z M410.47,28.93c0,1.24-0.25,2.32-0.76,3.22
		c-0.51,0.91-1.19,1.65-2.03,2.24c-0.84,0.59-1.81,1.03-2.89,1.31c-1.08,0.29-2.2,0.43-3.34,0.43c-0.67,0-1.33-0.09-1.98-0.26
		s-1.23-0.44-1.72-0.81c-0.49-0.36-0.89-0.83-1.19-1.38c-0.3-0.56-0.45-1.22-0.45-1.98c0-1.69,0.61-2.94,1.84-3.77
		c1.23-0.83,2.93-1.32,5.13-1.48c1.24-0.1,2.48-0.22,3.72-0.38s2.46-0.49,3.67-1V28.93z M387.47,3.68h-2.86v34.36h2.86V3.68z
		 M359.02,20.1V6.45h8.4c3.09,0,5.34,0.56,6.75,1.67c1.42,1.11,2.12,2.75,2.12,4.92c0,1.46-0.23,2.65-0.69,3.55
		c-0.46,0.91-1.11,1.62-1.96,2.15c-0.84,0.52-1.87,0.88-3.08,1.07c-1.21,0.19-2.58,0.29-4.1,0.29H359.02z M359.02,38.05V22.87h7.35
		c1.59,0,3.17-0.14,4.75-0.43c1.57-0.29,2.98-0.79,4.22-1.5s2.25-1.69,3.03-2.94c0.78-1.24,1.17-2.82,1.17-4.72
		c0-1.27-0.17-2.49-0.5-3.65c-0.33-1.16-0.92-2.19-1.77-3.08c-0.84-0.89-1.99-1.59-3.44-2.1c-1.45-0.51-3.29-0.76-5.51-0.76h-12.55
		v34.36H359.02z M324.04,24.16c-5.76,0.76-8.64,3.25-8.64,7.45c0,1.21,0.22,2.25,0.67,3.13c0.45,0.88,1.05,1.62,1.81,2.22
		c0.76,0.6,1.65,1.05,2.65,1.34c1,0.29,2.05,0.43,3.13,0.43c1.81,0,3.5-0.35,5.06-1.05c1.56-0.7,2.94-1.72,4.15-3.06
		c0,0.45,0.03,0.87,0.1,1.26c0.06,0.4,0.18,0.76,0.36,1.1c0.17,0.33,0.4,0.62,0.69,0.86c0.29,0.24,0.67,0.39,1.14,0.45
		c0.41,0.1,0.84,0.14,1.29,0.14c0.41,0,0.83-0.06,1.27-0.19c0.43-0.13,0.76-0.22,0.98-0.29v-2.24c-1.21,0.45-2.01,0.52-2.41,0.21
		c-0.4-0.3-0.6-1.01-0.6-2.12V20.34c0-1.43-0.23-2.64-0.69-3.63s-1.1-1.77-1.91-2.36c-0.81-0.59-1.77-1.02-2.86-1.29
		c-1.1-0.27-2.27-0.4-3.51-0.4c-1.34,0-2.6,0.15-3.79,0.45c-1.19,0.3-2.24,0.78-3.15,1.43c-0.91,0.65-1.65,1.5-2.22,2.53
		c-0.57,1.03-0.91,2.28-1,3.75h2.91c0.13-1.08,0.39-1.98,0.79-2.7c0.4-0.72,0.91-1.29,1.53-1.72c0.62-0.43,1.34-0.73,2.17-0.91
		c0.83-0.18,1.73-0.26,2.72-0.26c2.23,0,3.81,0.47,4.75,1.41c0.94,0.94,1.41,2.14,1.41,3.6c0,0.45-0.06,0.93-0.17,1.46
		c-0.11,0.53-0.4,0.9-0.88,1.12c-0.48,0.22-1.09,0.4-1.84,0.52c-0.75,0.13-1.39,0.22-1.93,0.29L324.04,24.16z M332.82,28.93
		c0,1.24-0.26,2.32-0.76,3.22c-0.51,0.91-1.19,1.65-2.03,2.24c-0.84,0.59-1.81,1.03-2.89,1.31c-1.08,0.29-2.2,0.43-3.34,0.43
		c-0.67,0-1.33-0.09-1.98-0.26s-1.23-0.44-1.72-0.81c-0.49-0.36-0.89-0.83-1.19-1.38c-0.3-0.56-0.45-1.22-0.45-1.98
		c0-1.69,0.61-2.94,1.84-3.77c1.22-0.83,2.93-1.32,5.13-1.48c1.24-0.1,2.48-0.22,3.72-0.38c1.24-0.16,2.47-0.49,3.68-1V28.93z
		 M293.44,24.73c0-0.86,0.03-1.65,0.1-2.39c0.06-0.73,0.24-1.5,0.52-2.29c0.22-0.64,0.54-1.24,0.95-1.81
		c0.41-0.57,0.91-1.08,1.5-1.53c0.59-0.44,1.25-0.8,1.98-1.07c0.73-0.27,1.54-0.41,2.43-0.41c2.29,0,3.93,0.56,4.92,1.67
		c0.99,1.11,1.48,2.78,1.48,5.01v16.13h2.86V21.87c0-1.02-0.06-2-0.17-2.94c-0.11-0.94-0.47-1.85-1.07-2.74
		c-0.89-1.31-1.99-2.22-3.29-2.74c-1.3-0.53-2.72-0.79-4.25-0.79c-1.72,0-3.19,0.38-4.42,1.14c-1.23,0.76-2.41,1.75-3.56,2.96v-3.44
		h-2.86v24.72h2.86V24.73z M282.27,29.55c-0.32,1.24-0.81,2.35-1.48,3.34c-0.67,0.99-1.53,1.77-2.6,2.36
		c-1.07,0.59-2.35,0.88-3.84,0.88c-1.37,0-2.58-0.25-3.63-0.76c-1.05-0.51-1.93-1.22-2.62-2.15c-0.7-0.92-1.23-2.03-1.6-3.32
		c-0.37-1.29-0.55-2.7-0.55-4.22c0-1.34,0.16-2.63,0.48-3.89c0.32-1.26,0.81-2.37,1.48-3.34c0.67-0.97,1.53-1.75,2.6-2.34
		c1.07-0.59,2.35-0.88,3.84-0.88c1.53,0,2.82,0.27,3.87,0.81c1.05,0.54,1.91,1.28,2.58,2.22c0.67,0.94,1.16,2.05,1.48,3.32
		c0.32,1.27,0.48,2.64,0.48,4.1C282.75,27.02,282.59,28.31,282.27,29.55 M279.05,37.78c1.42-0.62,2.62-1.5,3.63-2.65
		c1-1.15,1.77-2.51,2.32-4.1c0.54-1.59,0.81-3.37,0.81-5.35c0-1.81-0.23-3.52-0.69-5.11c-0.46-1.59-1.17-2.97-2.12-4.13
		c-0.95-1.16-2.15-2.08-3.58-2.77c-1.43-0.68-3.12-1.03-5.06-1.03c-1.91,0-3.58,0.34-5.01,1.03c-1.43,0.69-2.62,1.62-3.58,2.79
		c-0.95,1.18-1.67,2.55-2.15,4.13c-0.48,1.58-0.72,3.27-0.72,5.08c0,2.16,0.3,4.06,0.91,5.68c0.6,1.62,1.42,2.98,2.46,4.06
		c1.03,1.08,2.24,1.89,3.63,2.43c1.38,0.54,2.87,0.83,4.46,0.86C276.07,38.71,277.64,38.4,279.05,37.78 M246.81,24.16
		c-5.76,0.76-8.64,3.25-8.64,7.45c0,1.21,0.22,2.25,0.67,3.13c0.44,0.88,1.05,1.62,1.81,2.22c0.76,0.6,1.65,1.05,2.65,1.34
		c1,0.29,2.04,0.43,3.13,0.43c1.81,0,3.5-0.35,5.06-1.05c1.56-0.7,2.94-1.72,4.15-3.06c0,0.45,0.03,0.87,0.1,1.26
		c0.06,0.4,0.18,0.76,0.36,1.1c0.17,0.33,0.41,0.62,0.69,0.86c0.29,0.24,0.67,0.39,1.14,0.45c0.41,0.1,0.84,0.14,1.29,0.14
		c0.41,0,0.84-0.06,1.27-0.19c0.43-0.13,0.76-0.22,0.98-0.29v-2.24c-1.21,0.45-2.01,0.52-2.41,0.21c-0.4-0.3-0.6-1.01-0.6-2.12
		V20.34c0-1.43-0.23-2.64-0.69-3.63s-1.1-1.77-1.91-2.36c-0.81-0.59-1.77-1.02-2.86-1.29c-1.1-0.27-2.27-0.4-3.51-0.4
		c-1.34,0-2.6,0.15-3.79,0.45c-1.19,0.3-2.24,0.78-3.15,1.43c-0.91,0.65-1.65,1.5-2.22,2.53c-0.57,1.03-0.91,2.28-1,3.75h2.91
		c0.13-1.08,0.39-1.98,0.79-2.7c0.4-0.72,0.91-1.29,1.53-1.72c0.62-0.43,1.34-0.73,2.17-0.91c0.83-0.18,1.73-0.26,2.72-0.26
		c2.23,0,3.81,0.47,4.75,1.41c0.94,0.94,1.41,2.14,1.41,3.6c0,0.45-0.06,0.93-0.17,1.46c-0.11,0.53-0.41,0.9-0.88,1.12
		c-0.48,0.22-1.09,0.4-1.84,0.52c-0.75,0.13-1.39,0.22-1.93,0.29L246.81,24.16z M255.59,28.93c0,1.24-0.25,2.32-0.76,3.22
		c-0.51,0.91-1.19,1.65-2.03,2.24c-0.84,0.59-1.81,1.03-2.89,1.31c-1.08,0.29-2.2,0.43-3.34,0.43c-0.67,0-1.33-0.09-1.98-0.26
		c-0.65-0.17-1.22-0.44-1.72-0.81c-0.49-0.36-0.89-0.83-1.19-1.38c-0.3-0.56-0.45-1.22-0.45-1.98c0-1.69,0.61-2.94,1.84-3.77
		c1.22-0.83,2.93-1.32,5.13-1.48c1.24-0.1,2.48-0.22,3.72-0.38c1.24-0.16,2.47-0.49,3.68-1V28.93z M216.22,24.73
		c0-0.86,0.03-1.65,0.1-2.39c0.06-0.73,0.24-1.5,0.53-2.29c0.22-0.64,0.54-1.24,0.96-1.81c0.41-0.57,0.91-1.08,1.5-1.53
		c0.59-0.44,1.25-0.8,1.98-1.07c0.73-0.27,1.54-0.41,2.43-0.41c2.29,0,3.93,0.56,4.92,1.67c0.99,1.11,1.48,2.78,1.48,5.01v16.13
		h2.86V21.87c0-1.02-0.06-2-0.17-2.94c-0.11-0.94-0.47-1.85-1.07-2.74c-0.89-1.31-1.99-2.22-3.29-2.74
		c-1.3-0.53-2.72-0.79-4.25-0.79c-1.72,0-3.19,0.38-4.41,1.14c-1.23,0.76-2.41,1.75-3.56,2.96v-3.44h-2.86v24.72h2.86V24.73z
		 M206.67,3.68h-3.15v4.25h3.15V3.68z M206.53,13.32h-2.86v24.72h2.86V13.32z M193.93,26.78c0,1.37-0.18,2.63-0.53,3.77
		c-0.35,1.15-0.84,2.13-1.48,2.96c-0.64,0.83-1.42,1.47-2.36,1.93c-0.94,0.46-2,0.69-3.17,0.69c-2.26,0-3.88-0.56-4.87-1.69
		c-0.99-1.13-1.48-2.76-1.48-4.89V13.32h-2.86V29.6c0,1.31,0.15,2.51,0.45,3.6c0.3,1.1,0.79,2.06,1.48,2.89s1.58,1.47,2.7,1.93
		c1.11,0.46,2.5,0.69,4.15,0.69c1.08,0,2.03-0.14,2.86-0.41c0.83-0.27,1.55-0.6,2.17-1c0.62-0.4,1.17-0.84,1.65-1.31
		c0.48-0.48,0.91-0.94,1.29-1.38v3.44h2.86V13.32h-2.86V26.78z M167.58,17.67h-0.1c-0.41-0.79-0.95-1.51-1.6-2.15
		c-0.65-0.64-1.37-1.16-2.15-1.58c-0.78-0.41-1.58-0.73-2.41-0.95c-0.83-0.22-1.64-0.33-2.43-0.33c-2,0-3.71,0.33-5.11,1
		c-1.4,0.67-2.55,1.58-3.46,2.74c-0.91,1.16-1.57,2.54-1.98,4.13c-0.41,1.59-0.62,3.29-0.62,5.11c0,1.72,0.22,3.37,0.67,4.96
		c0.45,1.59,1.12,2.98,2.03,4.18s2.05,2.15,3.44,2.86c1.38,0.72,3.01,1.07,4.89,1.07c1.75,0,3.43-0.39,5.03-1.17
		c1.61-0.78,2.87-1.93,3.79-3.46v13.7h2.86V13.32h-2.86V17.67z M167.04,29.77c-0.37,1.29-0.9,2.4-1.6,3.34
		c-0.7,0.94-1.57,1.68-2.62,2.22s-2.24,0.81-3.58,0.81c-1.21,0-2.32-0.22-3.34-0.64c-1.02-0.43-1.91-1.06-2.67-1.88
		c-0.76-0.83-1.36-1.84-1.79-3.03c-0.43-1.19-0.64-2.57-0.64-4.13c-0.06-1.56,0.06-3.01,0.38-4.37c0.32-1.35,0.83-2.54,1.53-3.56
		c0.7-1.02,1.59-1.82,2.67-2.41c1.08-0.59,2.37-0.88,3.87-0.88c1.3,0,2.47,0.28,3.51,0.83c1.03,0.56,1.91,1.31,2.62,2.24
		c0.72,0.94,1.26,2.04,1.65,3.29c0.38,1.26,0.57,2.59,0.57,3.99C167.58,27.08,167.4,28.48,167.04,29.77 M138.95,25.92
		c0-1.37,0.12-2.68,0.36-3.94c0.24-1.26,0.67-2.35,1.29-3.27c0.62-0.92,1.46-1.65,2.51-2.19c1.05-0.54,2.39-0.79,4.01-0.76v-3.1
		c-2.07,0-3.73,0.39-4.99,1.17c-1.26,0.78-2.28,2.16-3.08,4.13h-0.1v-4.63h-2.86v24.72h2.86V25.92z M102.44,25.11
		c0,4.39,1.1,7.8,3.29,10.21c2.2,2.42,5.54,3.63,10.02,3.63c4.46,0,7.79-1.18,10-3.56c2.21-2.37,3.32-5.8,3.32-10.28V3.68h-3.25
		v20.47c0,2.04-0.17,3.8-0.52,5.3c-0.35,1.5-0.92,2.74-1.72,3.75c-0.8,1-1.84,1.75-3.13,2.24c-1.29,0.49-2.86,0.74-4.7,0.74
		c-3.53,0-6.09-0.94-7.68-2.82c-1.59-1.88-2.39-4.95-2.39-9.21V3.68h-3.25V25.11z"/>
</g>
</svg>
